<?xml version="1.0" encoding="utf-8"?>
<!-- Generator: Adobe Illustrator 15.1.0, SVG Export Plug-In . SVG Version: 6.00 Build 0)  -->
<svg version="1.2" baseProfile="tiny" id="Capa_1" xmlns="http://www.w3.org/2000/svg" xmlns:xlink="http://www.w3.org/1999/xlink"
	 x="0px" y="0px" width="1000px" height="300px" viewBox="0 0 1000 300" xml:space="preserve">
<g>
	<path fill="#7E8588" d="M211.482,172.867v2.426h-55.484v-2.426h13.872V85.698c0-15.811-7.793-23.373-21.177-23.373
		c-13.863,0-29.701,13.389-29.701,41.392v69.15h14.855v2.426H78.36v-2.426h13.874V85.698c0-15.811-7.789-23.373-21.168-23.373
		c-13.635,0-29.447,13.389-29.447,41.392v69.15h14.595v2.426H0v-2.426h14.845V55.998H0v-2.436h41.619v32.627
		c7.78-25.077,24.571-35.058,41.851-35.058c18.983,0,34.312,10.464,35.523,35.542c7.558-25.324,25.077-35.542,42.11-35.542
		c19.725,0,35.54,11.194,35.54,38.462v83.273H211.482z"/>
	<path fill="#7E8588" d="M300.31,142.678c-8.032,25.078-24.581,35.052-41.864,35.052c-19.709,0-35.774-11.201-35.774-38.462V55.996
		h-14.598V53.56h41.37v89.595c0,15.835,8.04,23.375,21.422,23.375c13.634,0,29.444-13.381,29.444-41.388V55.996h-20.687V53.56
		h47.456v119.31h14.845v2.424H300.31V142.678z"/>
	<path fill="#7E8588" d="M389.161,186.742c0,23.855-13.146,39.684-40.902,39.684c-14.831,0-22.861-6.572-22.861-15.094
		c0-8.275,5.84-12.654,12.16-12.654c6.083,0,12.411,2.666,12.411,11.441c0,3.652-2.185,10.461-10.216,12.65
		c1.946,0.738,4.131,1.217,6.819,1.217c12.411,0,15.806-9.492,15.806-23.613V55.998h-19.459V53.56h46.242V186.742z M373.826,8.766
		c9.248,0,16.552,5.592,16.552,15.094c0,9.258-7.304,14.361-16.552,14.361c-9.736,0-17.031-5.103-17.031-14.361
		C356.795,14.358,364.09,8.766,373.826,8.766"/>
	<path fill="#7E8588" d="M513.27,161.66c-9.729,7.793-23.351,16.074-46.23,16.074c-39.199,0-61.095-26.543-61.095-63.795
		c0-41.383,29.698-62.809,60.118-62.809c25.313,0,49.649,14.608,49.649,48.941c0,3.646-0.487,9.977-1.222,13.39h-80.322
		c0,43.82,17.528,59.896,41.865,59.896c15.342,0,27.989-6.824,37.236-14.859V161.66z M489.176,111.025
		c0.49-2.441,1.223-11.931,1.223-16.555c0-17.539-7.048-40.904-24.336-40.904c-22.88,0-31.388,27.016-31.894,57.459H489.176z"/>
	<path fill="#7E8588" d="M521.549,55.998V53.56h41.614v35.308c4.608-23.62,20.45-37.738,36.759-37.738
		c10.457,0,16.776,6.821,16.776,16.068c0,8.284-5.341,15.098-14.357,15.098c-7.292,0-13.623-3.889-13.623-13.641
		c0-4.381,1.458-11.192,7.795-14.844c-19.97,2.429-33.35,26.05-33.35,59.156v59.896h24.336v2.43h-65.95v-2.43h14.835V55.998H521.549
		z"/>
	<path fill="#7E8588" d="M656.853,86.187c7.794-25.078,24.571-35.053,41.867-35.053c19.707,0,35.772,11.194,35.772,38.463v83.266
		h14.608v2.43h-55.498v-2.43h14.112V85.696c0-15.813-8.028-23.368-21.415-23.368c-13.624,0-29.447,13.393-29.447,41.388v69.147
		h14.61v2.43h-56.222v-2.43h14.846V2.444h-14.846V0h41.611V86.187z"/>
	<path fill="#7E8588" d="M870.293,114.429c0,36.025-20.705,63.306-59.133,63.306c-38.229,0-58.916-27.281-58.916-63.306
		c0-36.033,20.687-63.299,58.916-63.299C849.588,51.13,870.293,78.396,870.293,114.429 M780.233,114.429
		c0,37.505,9.492,60.868,30.927,60.868c21.651,0,31.145-23.363,31.145-60.868c0-37.498-9.493-60.867-31.145-60.867
		C789.726,53.562,780.233,76.931,780.233,114.429"/>
	<path fill="#7E8588" d="M878.309,55.998h-15.584V53.56h71.083v2.438h-24.11l37.236,100.792h0.488L979.06,55.998h-26.032V53.56H1000
		v2.438h-18.263l-37.721,120.514c-9.485,29.461-23.848,49.928-49.154,49.928c-14.607,0-22.637-6.586-22.637-15.105
		c0-8.281,5.839-12.664,12.17-12.664c6.083,0,12.409,2.676,12.409,11.455c0,3.641-2.188,10.459-10.215,12.645
		c1.936,0.744,4.623,1.217,7.293,1.217c11.44,0,34.8-5.109,47.452-47.475h-18.727L878.309,55.998z"/>
</g>
</svg>
