<?xml version="1.0" encoding="utf-8"?>
<!-- Generator: Adobe Illustrator 15.1.0, SVG Export Plug-In . SVG Version: 6.00 Build 0)  -->
<svg version="1.2" baseProfile="tiny" id="Capa_1" xmlns="http://www.w3.org/2000/svg" xmlns:xlink="http://www.w3.org/1999/xlink"
	 x="0px" y="0px" width="1000px" height="152px" viewBox="0 0 1000 152" xml:space="preserve">
<g>
	<polygon fill="#0073B5" points="108.776,3.406 68.848,121.257 68.27,121.257 29.174,3.406 0,3.406 51.847,147.879 83.562,147.879 
		135.409,3.406 	"/>
	<g>
		<path fill="#0073B5" d="M216.708,129.746c31.161,0,45.055-28.322,45.055-54.102c0-27.479-16.713-54.115-45.055-54.115
			c-28.609,0-45.321,26.635-45.321,54.115C171.387,101.424,185.268,129.746,216.708,129.746 M216.708,0
			c43.923,0,73.375,31.729,73.375,75.644c0,41.362-30.028,75.654-73.375,75.654c-43.613,0-73.652-34.292-73.652-75.654
			C143.056,31.729,172.518,0,216.708,0"/>
		<path fill="#0073B5" d="M416.149,27.767c-10.188-4.25-20.398-6.227-28.899-6.227c-29.74,0-46.454,26.624-46.454,54.104
			c0,25.78,13.873,54.102,48.164,54.102c9.054,0,20.396-2.83,28.608-8.201l1.975,23.794c-11.041,5.104-23.792,5.948-33.424,5.948
			c-43.635,0-73.653-34.281-73.653-75.643C312.466,31.729,341.93,0,386.12,0c10.764,0,24.658,2.563,32.303,5.66L416.149,27.767z"/>
		<path fill="#0073B5" d="M540.792,61.759c0-22.095-13.025-40.23-35.977-40.23c-26.055,0-36.842,21.531-38.818,40.23H540.792z
			 M558.07,141.942c-10.198,3.685-21.805,9.355-45.597,9.355c-51.292,0-74.796-31.174-74.796-78.207
			C437.677,30.308,464.577,0,505.37,0c48.164,0,63.745,35.125,63.745,81.592H465.998c0,28.622,22.372,48.154,47.608,48.154
			c17.556,0,37.952-9.057,44.465-14.438V141.942z"/>
		<path fill="#0073B5" d="M597.733,3.395h25.78v22.951h0.577C632.014,9.91,651.277,0,671.387,0
			c37.398,0,54.111,23.229,54.111,62.037v85.854h-26.634V73.102c0-33.727-7.358-50.152-30.595-51.562
			c-30.308,0-43.912,24.36-43.912,59.485v66.865h-26.624V3.395z"/>
		<path fill="#0073B5" d="M837.667,3.395v21.531h-38.241v79.05c0,16.713,10.212,25.77,22.384,25.77
			c8.223,0,14.172-2.542,18.146-5.082v22.65c-5.962,1.709-14.184,3.973-22.684,3.973c-27.479,0-44.457-13.04-44.457-41.928V24.926
			h-32.581V3.395H837.667z"/>
		<path fill="#0073B5" d="M926.625,129.746c31.162,0,45.054-28.322,45.054-54.102c0-27.479-16.713-54.115-45.054-54.115
			c-28.609,0-45.322,26.635-45.322,54.115C881.303,101.424,895.176,129.746,926.625,129.746 M926.625,0
			C970.536,0,1000,31.729,1000,75.644c0,41.362-30.042,75.654-73.375,75.654c-43.613,0-73.654-34.292-73.654-75.654
			C852.971,31.729,882.435,0,926.625,0"/>
	</g>
</g>
</svg>
